<svg width="1277" height="219" viewBox="0 0 1277 219" fill="none" xmlns="http://www.w3.org/2000/svg">
<g filter="url(#filter0_d_1804_17)">
<path d="M33.0773 172V47.4909H75.1477C84.9155 47.4909 92.9 49.254 99.1011 52.7801C105.343 56.2657 109.963 60.9875 112.962 66.9455C115.962 72.9034 117.461 79.5504 117.461 86.8864C117.461 94.2223 115.962 100.89 112.962 106.888C110.004 112.887 105.424 117.669 99.2227 121.236C93.0216 124.762 85.0777 126.525 75.3909 126.525H45.2364V113.15H74.9045C81.592 113.15 86.9623 111.995 91.0153 109.685C95.0684 107.374 98.0068 104.254 99.8307 100.322C101.695 96.3502 102.627 91.8716 102.627 86.8864C102.627 81.9011 101.695 77.4428 99.8307 73.5114C98.0068 69.5799 95.0481 66.4996 90.9545 64.2705C86.861 62.0008 81.4299 60.8659 74.6614 60.8659H48.1545V172H33.0773ZM171.601 173.945C163.171 173.945 155.774 171.939 149.411 167.927C143.088 163.914 138.143 158.301 134.576 151.086C131.05 143.872 129.287 135.442 129.287 125.795C129.287 116.068 131.05 107.577 134.576 100.322C138.143 93.0672 143.088 87.4335 149.411 83.421C155.774 79.4085 163.171 77.4023 171.601 77.4023C180.031 77.4023 187.408 79.4085 193.73 83.421C200.094 87.4335 205.038 93.0672 208.565 100.322C212.131 107.577 213.915 116.068 213.915 125.795C213.915 135.442 212.131 143.872 208.565 151.086C205.038 158.301 200.094 163.914 193.73 167.927C187.408 171.939 180.031 173.945 171.601 173.945ZM171.601 161.057C178.005 161.057 183.274 159.415 187.408 156.132C191.542 152.849 194.602 148.533 196.588 143.183C198.574 137.833 199.567 132.037 199.567 125.795C199.567 119.554 198.574 113.738 196.588 108.347C194.602 102.957 191.542 98.5996 187.408 95.2761C183.274 91.9526 178.005 90.2909 171.601 90.2909C165.197 90.2909 159.928 91.9526 155.794 95.2761C151.66 98.5996 148.6 102.957 146.614 108.347C144.628 113.738 143.635 119.554 143.635 125.795C143.635 132.037 144.628 137.833 146.614 143.183C148.6 148.533 151.66 152.849 155.794 156.132C159.928 159.415 165.197 161.057 171.601 161.057ZM230.68 172V78.6182H244.541V92.7227H245.514C247.216 88.1023 250.297 84.3532 254.755 81.4756C259.213 78.5979 264.239 77.1591 269.832 77.1591C270.886 77.1591 272.203 77.1794 273.784 77.2199C275.365 77.2604 276.56 77.3212 277.371 77.4023V91.9932C276.885 91.8716 275.77 91.6892 274.027 91.446C272.325 91.1623 270.521 91.0205 268.616 91.0205C264.077 91.0205 260.024 91.9729 256.457 93.8778C252.931 95.7422 250.135 98.3362 248.068 101.66C246.041 104.943 245.028 108.692 245.028 112.907V172H230.68ZM336.678 78.6182V90.7773H286.34V78.6182H336.678ZM301.417 172V65.7295C301.417 60.3795 302.673 55.9212 305.186 52.3545C307.699 48.7879 310.962 46.1129 314.974 44.3295C318.987 42.5462 323.222 41.6545 327.68 41.6545C331.207 41.6545 334.084 41.9383 336.313 42.5057C338.543 43.0731 340.204 43.6 341.299 44.0864L337.165 56.4886C336.435 56.2455 335.422 55.9415 334.125 55.5767C332.868 55.2119 331.207 55.0295 329.14 55.0295C324.398 55.0295 320.973 56.2252 318.865 58.6165C316.798 61.0078 315.765 64.5136 315.765 69.1341V172H301.417ZM385.741 173.945C377.311 173.945 369.914 171.939 363.551 167.927C357.228 163.914 352.284 158.301 348.717 151.086C345.191 143.872 343.428 135.442 343.428 125.795C343.428 116.068 345.191 107.577 348.717 100.322C352.284 93.0672 357.228 87.4335 363.551 83.421C369.914 79.4085 377.311 77.4023 385.741 77.4023C394.172 77.4023 401.548 79.4085 407.871 83.421C414.234 87.4335 419.179 93.0672 422.705 100.322C426.272 107.577 428.055 116.068 428.055 125.795C428.055 135.442 426.272 143.872 422.705 151.086C419.179 158.301 414.234 163.914 407.871 167.927C401.548 171.939 394.172 173.945 385.741 173.945ZM385.741 161.057C392.145 161.057 397.414 159.415 401.548 156.132C405.682 152.849 408.742 148.533 410.728 143.183C412.714 137.833 413.707 132.037 413.707 125.795C413.707 119.554 412.714 113.738 410.728 108.347C408.742 102.957 405.682 98.5996 401.548 95.2761C397.414 91.9526 392.145 90.2909 385.741 90.2909C379.338 90.2909 374.069 91.9526 369.935 95.2761C365.8 98.5996 362.74 102.957 360.754 108.347C358.768 113.738 357.775 119.554 357.775 125.795C357.775 132.037 358.768 137.833 360.754 143.183C362.74 148.533 365.8 152.849 369.935 156.132C374.069 159.415 379.338 161.057 385.741 161.057ZM459.168 47.4909V172H444.821V47.4909H459.168ZM480.311 172V78.6182H494.659V172H480.311ZM487.607 63.0545C484.81 63.0545 482.398 62.1021 480.372 60.1972C478.386 58.2922 477.393 56.0023 477.393 53.3273C477.393 50.6523 478.386 48.3623 480.372 46.4574C482.398 44.5525 484.81 43.6 487.607 43.6C490.403 43.6 492.794 44.5525 494.78 46.4574C496.807 48.3623 497.82 50.6523 497.82 53.3273C497.82 56.0023 496.807 58.2922 494.78 60.1972C492.794 62.1021 490.403 63.0545 487.607 63.0545ZM553.738 173.945C545.308 173.945 537.911 171.939 531.548 167.927C525.225 163.914 520.28 158.301 516.714 151.086C513.187 143.872 511.424 135.442 511.424 125.795C511.424 116.068 513.187 107.577 516.714 100.322C520.28 93.0672 525.225 87.4335 531.548 83.421C537.911 79.4085 545.308 77.4023 553.738 77.4023C562.168 77.4023 569.545 79.4085 575.868 83.421C582.231 87.4335 587.176 93.0672 590.702 100.322C594.268 107.577 596.052 116.068 596.052 125.795C596.052 135.442 594.268 143.872 590.702 151.086C587.176 158.301 582.231 163.914 575.868 167.927C569.545 171.939 562.168 173.945 553.738 173.945ZM553.738 161.057C560.142 161.057 565.411 159.415 569.545 156.132C573.679 152.849 576.739 148.533 578.725 143.183C580.711 137.833 581.704 132.037 581.704 125.795C581.704 119.554 580.711 113.738 578.725 108.347C576.739 102.957 573.679 98.5996 569.545 95.2761C565.411 91.9526 560.142 90.2909 553.738 90.2909C547.334 90.2909 542.065 91.9526 537.931 95.2761C533.797 98.5996 530.737 102.957 528.751 108.347C526.765 113.738 525.772 119.554 525.772 125.795C525.772 132.037 526.765 137.833 528.751 143.183C530.737 148.533 533.797 152.849 537.931 156.132C542.065 159.415 547.334 161.057 553.738 161.057ZM657.777 172V47.4909H672.854V158.625H730.731V172H657.777ZM784.932 173.945C776.501 173.945 769.105 171.939 762.741 167.927C756.419 163.914 751.474 158.301 747.907 151.086C744.381 143.872 742.618 135.442 742.618 125.795C742.618 116.068 744.381 107.577 747.907 100.322C751.474 93.0672 756.419 87.4335 762.741 83.421C769.105 79.4085 776.501 77.4023 784.932 77.4023C793.362 77.4023 800.738 79.4085 807.061 83.421C813.424 87.4335 818.369 93.0672 821.895 100.322C825.462 107.577 827.245 116.068 827.245 125.795C827.245 135.442 825.462 143.872 821.895 151.086C818.369 158.301 813.424 163.914 807.061 167.927C800.738 171.939 793.362 173.945 784.932 173.945ZM784.932 161.057C791.335 161.057 796.604 159.415 800.738 156.132C804.872 152.849 807.933 148.533 809.919 143.183C811.905 137.833 812.897 132.037 812.897 125.795C812.897 119.554 811.905 113.738 809.919 108.347C807.933 102.957 804.872 98.5996 800.738 95.2761C796.604 91.9526 791.335 90.2909 784.932 90.2909C778.528 90.2909 773.259 91.9526 769.125 95.2761C764.991 98.5996 761.931 102.957 759.945 108.347C757.959 113.738 756.966 119.554 756.966 125.795C756.966 132.037 757.959 137.833 759.945 143.183C761.931 148.533 764.991 152.849 769.125 156.132C773.259 159.415 778.528 161.057 784.932 161.057ZM871.49 174.189C865.573 174.189 860.203 173.074 855.38 170.845C850.556 168.575 846.726 165.313 843.889 161.057C841.052 156.761 839.634 151.573 839.634 145.493C839.634 140.143 840.687 135.806 842.795 132.483C844.902 129.119 847.719 126.484 851.245 124.58C854.772 122.675 858.662 121.256 862.918 120.324C867.214 119.351 871.531 118.581 875.868 118.014C881.542 117.284 886.142 116.737 889.668 116.372C893.235 115.967 895.829 115.298 897.45 114.366C899.112 113.434 899.943 111.812 899.943 109.502V109.016C899.943 103.017 898.301 98.3564 895.018 95.033C891.776 91.7095 886.851 90.0477 880.245 90.0477C873.395 90.0477 868.025 91.5473 864.134 94.5466C860.243 97.5458 857.507 100.748 855.927 104.152L842.309 99.2886C844.74 93.6144 847.983 89.1966 852.036 86.0352C856.129 82.8333 860.588 80.6042 865.411 79.3477C870.274 78.0508 875.057 77.4023 879.759 77.4023C882.758 77.4023 886.203 77.767 890.094 78.4966C894.025 79.1856 897.815 80.6244 901.462 82.8131C905.151 85.0017 908.211 88.3049 910.643 92.7227C913.074 97.1405 914.29 103.058 914.29 110.475V172H899.943V159.355H899.213C898.24 161.381 896.619 163.549 894.349 165.86C892.08 168.17 889.06 170.136 885.291 171.757C881.522 173.378 876.921 174.189 871.49 174.189ZM873.679 161.3C879.353 161.3 884.136 160.185 888.027 157.956C891.958 155.727 894.917 152.849 896.903 149.323C898.929 145.797 899.943 142.089 899.943 138.198V125.066C899.335 125.795 897.997 126.464 895.93 127.072C893.904 127.64 891.553 128.146 888.878 128.592C886.243 128.997 883.67 129.362 881.157 129.686C878.684 129.97 876.678 130.213 875.138 130.416C871.409 130.902 867.924 131.693 864.681 132.787C861.479 133.841 858.885 135.442 856.899 137.59C854.954 139.697 853.981 142.575 853.981 146.223C853.981 151.208 855.825 154.977 859.514 157.531C863.242 160.044 867.964 161.3 873.679 161.3ZM970.603 173.945C962.822 173.945 955.952 171.98 949.994 168.048C944.036 164.076 939.375 158.483 936.011 151.269C932.647 144.014 930.965 135.442 930.965 125.552C930.965 115.744 932.647 107.233 936.011 100.018C939.375 92.8038 944.056 87.2309 950.054 83.2994C956.053 79.368 962.984 77.4023 970.847 77.4023C976.926 77.4023 981.729 78.4155 985.255 80.442C988.822 82.428 991.537 84.6977 993.402 87.2511C995.307 89.764 996.786 91.8311 997.84 93.4523H999.056V47.4909H1013.4V172H999.542V157.652H997.84C996.786 159.355 995.286 161.503 993.341 164.097C991.395 166.65 988.619 168.94 985.012 170.966C981.405 172.952 976.602 173.945 970.603 173.945ZM972.549 161.057C978.304 161.057 983.168 159.557 987.14 156.558C991.112 153.518 994.131 149.323 996.198 143.973C998.265 138.583 999.299 132.361 999.299 125.309C999.299 118.338 998.286 112.238 996.259 107.01C994.232 101.741 991.233 97.6472 987.261 94.729C983.289 91.7703 978.385 90.2909 972.549 90.2909C966.469 90.2909 961.403 91.8513 957.35 94.9722C953.337 98.0525 950.318 102.247 948.291 107.557C946.305 112.826 945.312 118.743 945.312 125.309C945.312 131.956 946.326 137.995 948.352 143.426C950.419 148.817 953.459 153.113 957.472 156.315C961.525 159.476 966.55 161.057 972.549 161.057ZM1036.54 172V78.6182H1050.88V172H1036.54ZM1043.83 63.0545C1041.04 63.0545 1038.62 62.1021 1036.6 60.1972C1034.61 58.2922 1033.62 56.0023 1033.62 53.3273C1033.62 50.6523 1034.61 48.3623 1036.6 46.4574C1038.62 44.5525 1041.04 43.6 1043.83 43.6C1046.63 43.6 1049.02 44.5525 1051.01 46.4574C1053.03 48.3623 1054.05 50.6523 1054.05 53.3273C1054.05 56.0023 1053.03 58.2922 1051.01 60.1972C1049.02 62.1021 1046.63 63.0545 1043.83 63.0545ZM1086.38 115.825V172H1072.03V78.6182H1085.89V93.2091H1087.11C1089.29 88.467 1092.62 84.6572 1097.08 81.7795C1101.53 78.8614 1107.29 77.4023 1114.34 77.4023C1120.66 77.4023 1126.2 78.6992 1130.94 81.2932C1135.68 83.8466 1139.37 87.7375 1142 92.9659C1144.64 98.1538 1145.96 104.72 1145.96 112.664V172H1131.61V113.636C1131.61 106.3 1129.7 100.586 1125.89 96.492C1122.08 92.358 1116.85 90.2909 1110.21 90.2909C1105.63 90.2909 1101.53 91.2839 1097.93 93.2699C1094.36 95.2559 1091.54 98.1538 1089.48 101.964C1087.41 105.773 1086.38 110.394 1086.38 115.825ZM1204.73 208.964C1197.8 208.964 1191.84 208.072 1186.86 206.289C1181.87 204.546 1177.72 202.236 1174.39 199.358C1171.11 196.521 1168.5 193.481 1166.55 190.239L1177.98 182.214C1179.28 183.916 1180.92 185.861 1182.9 188.05C1184.89 190.279 1187.61 192.204 1191.05 193.826C1194.54 195.487 1199.1 196.318 1204.73 196.318C1212.27 196.318 1218.49 194.494 1223.39 190.847C1228.3 187.199 1230.75 181.484 1230.75 173.702V154.734H1229.53C1228.48 156.436 1226.98 158.544 1225.04 161.057C1223.13 163.529 1220.37 165.738 1216.77 167.684C1213.2 169.588 1208.38 170.541 1202.3 170.541C1194.76 170.541 1187.99 168.758 1181.99 165.191C1176.03 161.624 1171.31 156.436 1167.83 149.627C1164.38 142.818 1162.66 134.55 1162.66 124.823C1162.66 115.258 1164.34 106.929 1167.71 99.8358C1171.07 92.7025 1175.75 87.1903 1181.75 83.2994C1187.75 79.368 1194.68 77.4023 1202.54 77.4023C1208.62 77.4023 1213.44 78.4155 1217.01 80.442C1220.62 82.428 1223.37 84.6977 1225.28 87.2511C1227.22 89.764 1228.72 91.8311 1229.78 93.4523H1231.24V78.6182H1245.1V174.675C1245.1 182.7 1243.27 189.225 1239.63 194.251C1236.02 199.317 1231.16 203.026 1225.04 205.377C1218.96 207.768 1212.19 208.964 1204.73 208.964ZM1204.24 157.652C1210 157.652 1214.86 156.335 1218.83 153.701C1222.81 151.066 1225.83 147.277 1227.89 142.332C1229.96 137.387 1230.99 131.47 1230.99 124.58C1230.99 117.852 1229.98 111.914 1227.95 106.766C1225.93 101.619 1222.93 97.5864 1218.96 94.6682C1214.98 91.75 1210.08 90.2909 1204.24 90.2909C1198.16 90.2909 1193.1 91.8311 1189.05 94.9114C1185.03 97.9917 1182.01 102.126 1179.99 107.314C1178 112.502 1177.01 118.257 1177.01 124.58C1177.01 131.064 1178.02 136.799 1180.05 141.785C1182.11 146.729 1185.15 150.62 1189.17 153.457C1193.22 156.254 1198.25 157.652 1204.24 157.652Z" fill="#E9A442"/>
</g>
<defs>
<filter id="filter0_d_1804_17" x="-4" y="0" width="1285" height="227" filterUnits="userSpaceOnUse" color-interpolation-filters="sRGB">
<feFlood flood-opacity="0" result="BackgroundImageFix"/>
<feColorMatrix in="SourceAlpha" type="matrix" values="0 0 0 0 0 0 0 0 0 0 0 0 0 0 0 0 0 0 127 0" result="hardAlpha"/>
<feOffset dy="4"/>
<feGaussianBlur stdDeviation="2"/>
<feComposite in2="hardAlpha" operator="out"/>
<feColorMatrix type="matrix" values="0 0 0 0 0 0 0 0 0 0 0 0 0 0 0 0 0 0 0.25 0"/>
<feBlend mode="normal" in2="BackgroundImageFix" result="effect1_dropShadow_1804_17"/>
<feBlend mode="normal" in="SourceGraphic" in2="effect1_dropShadow_1804_17" result="shape"/>
</filter>
</defs>
</svg>
